# xmcd
#
# Track frame offsets: 
#        150
#        20666
#        51670
#        63621
#        91572
#        108247
#        132460
#        149059
#        163129
#        180724
#        195095
#        216236
#        235156
#        251235
#        272467
#        291425
#        307936
#
# Disc length: 4402 seconds
#
# Revision: 0
# Processed by: cddbd v1.5.2PL0 Copyright (c) Steve Scherf et al.
# Submitted via: ExactAudioCopy v0.95a5
#
DISCID=04113011
DTITLE=Various Artist - Prezentuje Delta  2002-2012 - Prezentuje 
DYEAR=2012
DGENRE=Blues
TTITLE0=Dust Bowl/ Joe Bonamassa
TTITLE1=If I Had My Way/ Robert Randolph and the Family Band
TTITLE2=Must Be Hard To Be So Pretty/ Frank Morey
TTITLE3=Never Going Back To Memphis/ Shemekia Copeland
TTITLE4=Turkey Walk/ Boo Boo Davis
TTITLE5=I Can Take You To Heaven Tonight/ Otis Clay
TTITLE6=Let Me Love You/ Magic Slim and The Teardrops
TTITLE7=I Turned Into A Martian/ Jason Ricci and New Bloo
TTITLE8=Unconditional/ Ana Popovic
TTITLE9=Get Hip/ Omar and The Howlers
TTITLE10=Let Me In/ Paul Lamb and The King  Snakes
TTITLE11=Purgatory/ Moreland and Arbuckle
TTITLE12=Give Your Face/ Wanda Janson and Shrimp City Slim
TTITLE13=Rained All Night/ Tad Robinson
TTITLE14=Krystalline/ Sugar Blue
TTITLE15=Bitch/ Samanta Fish, Cassie Taylor, Dani Wilde
TTITLE16=Better to Have Loved and Lost/ Earl Tomas with Paddy Milner and T
TTITLE16=he Big Sounds
EXTD=
EXTT0=
EXTT1=
EXTT2=
EXTT3=
EXTT4=
EXTT5=
EXTT6=
EXTT7=
EXTT8=
EXTT9=
EXTT10=
EXTT11=
EXTT12=
EXTT13=
EXTT14=
EXTT15=
EXTT16=
PLAYORDER=
